<svg xmlns="http://www.w3.org/2000/svg" viewBox="0 0 24 24" width="24px" height="24px"><rect fill="#f4e02b" width="24" height="24"/><path fill="#040000" d="M12,4.19A7.13,7.13,0,0,0,4.61,11a6,6,0,0,0,2.77,5.33h0v3.28a.19.19,0,0,0,.3.15l2.8-2.08.06,0a7.67,7.67,0,0,0,1.45.13A7.13,7.13,0,0,0,19.39,11,7.13,7.13,0,0,0,12,4.19ZM9.52,12.75a1.53,1.53,0,0,0,1.53-1.1h1.07a2.55,2.55,0,0,1-2.6,2.13,2.77,2.77,0,1,1,0-5.54,2.57,2.57,0,0,1,2.61,2.18H11.06A1.51,1.51,0,0,0,9.52,9.26,1.67,1.67,0,0,0,7.78,11,1.72,1.72,0,0,0,9.52,12.75Zm7.06.93h-1V11.46a.7.7,0,0,0-.75-.78c-.51,0-.84.31-.84.94v2.06H13V8.26h1v2a1.26,1.26,0,0,1,1.13-.54,1.36,1.36,0,0,1,1,.42,1.55,1.55,0,0,1,.41,1.16Z"/></svg>