<svg xmlns="http://www.w3.org/2000/svg" xml:space="preserve" width="1000px" height="225px" x="0px" y="0px" viewBox="0 0 1000 225"><defs><path id="a" d="M0 .014h1000v224.973H0z"/></defs><clipPath id="b"><use href="#a" overflow="visible"/></clipPath><path fill="#D73227" d="M542.185 27.572C535.435 14.637 521.934.013 493.252.013c-18.562 0-31.496 7.874-39.37 15.747V5.075c0-1.126-1.126-1.686-1.688-1.686h-25.31c-1.123 0-1.687 1.124-1.687 1.686v213.721c0 1.126 1.123 1.692 1.687 1.692h27.559c1.126 0 1.688-1.127 1.688-1.692v-72.55c8.437 7.311 20.248 14.061 37.682 14.061 28.688 0 42.182-14.627 48.933-27.562 6.75-13.495 7.311-27.559 7.311-30.37V59.069c-.562-3.375-1.127-17.999-7.872-31.497m-24.749 75.929c0 6.75-4.498 29.244-30.934 29.244-26.995 0-30.934-23.057-30.934-29.244V57.38c0-6.748 4.498-29.245 30.934-29.245 26.995 0 30.934 23.06 30.934 29.245v46.121z" clip-path="url(#b)"/><path fill="#521110" d="M128.232 58.506c0-2.812.563-16.873 7.874-30.371C143.419 15.197 159.166.573 190.663.573c31.496 0 47.243 14.624 54.557 27.562 7.874 13.498 7.874 27.559 7.874 30.371v43.305c0 2.813-.563 16.873-7.874 30.374-7.313 12.935-22.497 27.561-54.557 27.561-31.497 0-47.244-14.626-54.557-27.561-7.874-13.501-7.874-27.562-7.874-30.374V58.506zm31.497 44.432c0 6.75 4.498 29.248 30.934 29.248 26.995 0 31.496-23.061 31.496-29.248v-46.12c0-6.748-4.501-29.245-31.496-29.245-26.996 0-30.934 23.061-30.934 29.245v46.12zM399.889 5.075c0-1.126-.563-1.686-1.687-1.686H370.64c-1.123 0-1.687 1.124-1.687 1.686v97.862c0 6.75-4.498 29.248-30.934 29.248-26.995 0-31.496-23.061-31.496-29.248V5.075c0-1.126-1.123-1.686-1.687-1.686h-27.559c-1.126 0-1.688 1.124-1.688 1.686v96.739c0 2.813 0 16.87 7.313 30.371 6.748 12.935 20.246 27.556 48.931 27.556 9.562 0 17.436-1.687 23.623-5.059 6.187-2.813 11.812-6.751 15.747-10.688v10.688c0 1.126 1.126 1.687 1.688 1.687h25.31c1.123 0 1.687-1.127 1.687-1.687V5.075z" clip-path="url(#b)"/><path fill="#E99923" d="M686.725 56.817c0-12.372-6.185-41.057-33.746-52.305-26.995-11.249-62.427 1.126-73.676 5.624l-2.252 1.126c-1.12.56-1.686 1.686-1.12 2.812l7.87 22.498c.566 1.123 1.126 1.686 2.252 1.123.561 0 .561-.563 1.126-.563 10.683-5.625 38.244-14.621 55.117-6.748s15.187 25.31 15.187 27.559v4.498c-7.876-5.624-19.125-11.249-35.438-11.809-28.682 0-42.182 14.061-48.927 25.87-6.75 12.938-7.315 26.435-7.315 28.684 0 2.813.565 16.311 7.315 28.685 6.745 12.375 20.245 25.875 48.927 25.875 16.873 0 28.122-6.189 36.559-12.374v7.311c0 1.126 1.126 1.687 1.691 1.687h24.184c1.126 0 1.686-1.127 1.686-1.687V57.38c.56 0 .56 0 .56-.563m-29.243 48.933c0 6.187-4.504 27.561-30.373 27.561s-30.373-21.374-30.373-27.561v-2.249c0-6.188 4.504-27.559 30.373-27.559s30.373 21.371 30.373 27.559v2.249z" clip-path="url(#b)"/><path fill="#50A3D9" d="M997.753 1.14c-16.313-.563-26.435 6.188-33.186 13.498C955.57 6.765 941.51.577 920.133.577c-31.493 0-47.24 14.061-54.551 26.436-7.876 12.935-7.876 26.432-7.876 29.244v1.689c0 2.812.56 16.31 7.876 29.244 3.372 5.625 8.437 11.249 15.747 16.313-11.814 6.748-22.497 19.12-22.497 41.056v11.81c0 1.125 1.126 2.251 1.686 2.251h90.55c10.688 0 16.313 7.311 17.999 14.062 1.686 8.436-1.127 19.685-15.747 27.556l-1.126.565c-1.126.561-1.126 1.687-.561 2.813l12.375 21.932c.56 1.125 1.686 1.125 2.812.565 0 0 6.185-3.938 8.437-5.064 2.246-1.126 3.933-2.812 5.625-4.498 15.746-14.621 18.559-34.306 15.181-50.059-4.498-21.371-22.497-33.746-44.994-33.746H888.64c3.372-19.119 25.31-18.559 28.121-18.559h3.372c31.5 0 47.247-14.059 54.558-26.433 7.876-12.935 7.876-26.433 7.876-29.245v-2.812c0-2.252 0-12.375-5.064-23.06 3.938-2.813 10.688-5.624 20.251-5.062 1.12 0 2.247-1.126 2.247-1.688V3.952c-.001-1.686-1.128-2.812-2.248-2.812m-46.686 56.243c0 6.188-4.499 27.559-30.935 28.122-26.995 0-30.934-21.935-30.934-28.122v-1.686c0-6.187 4.504-27.561 30.934-28.122 27.002 0 30.935 21.935 30.935 28.122v1.686z" clip-path="url(#b)"/><path fill="#521110" d="m118.11 127.121-24.184-12.375c-1.126-.56-2.252 0-2.813 1.127v.565c-3.938 7.87-11.812 16.307-28.121 16.872-26.998 0-30.934-23.063-30.934-29.25V57.943c0-6.75 4.498-29.248 30.934-29.248 16.31 0 24.746 9.005 28.121 16.873.561.569 1.123 1.687 2.249 1.687h1.124l23.623-12.366c1.126-.568 1.126-1.694.563-2.813-.563-1.131-1.126-1.694-1.126-2.812C110.236 16.321 95.05 1.7 62.993 1.7c-31.497 0-47.246 14.621-54.557 27.564C.563 41.07 0 55.691 0 58.503v43.308c0 2.813.563 16.873 7.873 30.374 7.313 12.935 22.497 27.561 54.557 27.561h.563c31.494 0 47.243-14.626 54.554-27.561l1.689-2.813c0-.559-.563-1.685-1.126-2.251" clip-path="url(#b)"/><path fill="#92BA3E" d="M829.024 27.572C822.273 14.637 808.212.013 780.091.013c-18.56 0-30.934 7.874-39.37 15.747V5.075c0-1.126-1.126-1.686-1.687-1.686h-25.31c-1.126 0-1.691 1.124-1.691 1.686v150.167c0 1.127 1.126 1.687 1.691 1.687h27.556c1.127 0 1.687-1.12 1.687-1.687V55.694c.565-7.874 6.19-27.559 30.934-28.122 27.001 0 31.499 23.061 31.499 29.248v98.422c0 1.127 1.127 1.687 1.687 1.687h27.562c1.12 0 1.686-1.12 1.686-1.687V58.506c-.001-2.812-.001-17.436-7.311-30.934" clip-path="url(#b)"/></svg>