<svg xmlns="http://www.w3.org/2000/svg" width="740" height="130" fill="none" viewBox="0 0 740 130"><path fill="#B8FF00" d="M.264 90.916v29.036h739.472V10.047L.264 90.917Z"/><path fill="#111AFF" d="M138.966 129.648h15.529a33.542 33.542 0 0 0 23.569-9.879 33.424 33.424 0 0 0 9.738-23.593V33.82a33.43 33.43 0 0 0-9.737-23.594 33.55 33.55 0 0 0-23.57-9.88h-15.529a33.548 33.548 0 0 0-23.57 9.88 33.427 33.427 0 0 0-9.738 23.594v62.356a33.428 33.428 0 0 0 9.738 23.593 33.549 33.549 0 0 0 23.57 9.879Zm-5.568-93.028a13.294 13.294 0 0 1 3.864-9.485 13.352 13.352 0 0 1 18.936 0 13.31 13.31 0 0 1 3.864 9.485v56.76a13.294 13.294 0 0 1-3.864 9.484 13.354 13.354 0 0 1-14.596 2.914 13.314 13.314 0 0 1-8.204-12.399V36.62ZM65.186 1.654v95.963c0 6.411-5.195 9.479-11.611 9.479s-11.621-3.068-11.621-9.48V70.811H15.808v33.052s.299 25.785 37.599 25.785c39.022 0 39.315-25.11 39.381-27.303l.029-100.691h-27.63ZM591.075 74.176h35.887v-21.83h-35.887V24.353h38.562V1.74h-66.199v125.831h66.653v-22.665h-39.012l-.004-30.73ZM412.218.347a33.548 33.548 0 0 0-23.569 9.879 33.426 33.426 0 0 0-9.738 23.593V96.18a33.424 33.424 0 0 0 9.738 23.593 33.544 33.544 0 0 0 23.569 9.879h15.529a33.542 33.542 0 0 0 23.569-9.879 33.424 33.424 0 0 0 9.738-23.593V33.82a33.426 33.426 0 0 0-9.738-23.594A33.547 33.547 0 0 0 427.747.348h-15.529Zm21.097 93.028c0 3.53-1.405 6.915-3.905 9.411a13.349 13.349 0 0 1-18.855 0 13.298 13.298 0 0 1-3.905-9.41V36.619c0-3.529 1.405-6.914 3.905-9.41a13.347 13.347 0 0 1 18.855 0 13.297 13.297 0 0 1 3.905 9.41v56.757ZM379.02 127.573l-34.875-64.842L378.36 1.742h-28.653l-31.763 58.994V1.742h-27.601v125.831h27.601V67.645l32.156 59.928h28.92ZM701.775 1.743h-43.476l-24.296 125.829h26.231l5.421-29.623h28.949l4.748 29.623h27.432L701.775 1.743ZM669.858 76.34l10.596-54.76 10.596 54.76h-21.192ZM545.803 82.365c-.962-3.964-2.675-6.593-6.211-7.837 7.62-3.49 11.905-11.16 11.905-22.245V32.83a30.898 30.898 0 0 0-5.144-17.108 29.762 29.762 0 0 0-10.749-10.215 29.828 29.828 0 0 0-14.353-3.769h-47.275v125.833h27.64V86.28l17.7-5.589 10.334 46.881h26.925l-10.772-45.207Zm-21.921-31.767c0 6.031-3.829 9.3-8.13 10.7-3.985 1.293-14.136 4.555-14.136 4.555v-44.26h12.818a9.318 9.318 0 0 1 6.704 2.7 9.275 9.275 0 0 1 2.744 6.675v19.63ZM279.775 84.62s.503-17.021-16.114-20.986a22.774 22.774 0 0 0 9.831-7.657A22.713 22.713 0 0 0 277.81 44.3l.071-16.397a26.002 26.002 0 0 0-4.2-14.16 26.065 26.065 0 0 0-11.239-9.602 26.457 26.457 0 0 0-10.661-2.4h-51.137v125.831h51.401a29.674 29.674 0 0 0 8.725-1.414 27.553 27.553 0 0 0 13.778-10.012 27.473 27.473 0 0 0 5.242-16.187l-.015-15.338Zm-51.688-65.918h13.259a9.306 9.306 0 0 1 6.353 2.782 9.274 9.274 0 0 1 2.654 6.398v13.351c0 4.966-4.269 7.369-9.061 8.892-6.39 2.032-13.205 4.178-13.205 4.178v-35.6Zm23.882 78.367a9.996 9.996 0 0 1-2.935 7.073 10.033 10.033 0 0 1-7.087 2.93h-13.86V74.22l14.192-4.482c7.174 0 9.69 7.413 9.69 12.754v14.576Z"/></svg>