<svg xmlns="http://www.w3.org/2000/svg" viewBox="0 0 320 320" width="320px" height="320px"><polygon fill="#423630" points="133.34 135.58 125.85 156.86 140.83 156.86 140.83 156.86 133.34 135.58"/><path fill="#423630" d="M160.84,45h0c-71.8,0-130,45.89-130,102.5,0,36.6,24.33,68.71,60.93,86.85-2,6.86-12.79,44.18-13.22,47.11,0,0-.26,2.2,1.16,3a3.94,3.94,0,0,0,3.11.19c4.09-.57,47.43-31,54.93-36.3A164.84,164.84,0,0,0,160.84,250c71.8,0,130-45.89,130-102.5S232.64,45,160.84,45ZM96.46,176.12a7.51,7.51,0,0,1-15,0V131.56H69.76a7.34,7.34,0,1,1,0-14.68h38.41a7.34,7.34,0,1,1,0,14.68H96.46Zm63,6a11.56,11.56,0,0,1-4.77,1h0c-3.13,0-5.52-1.27-6.24-3.31l-3.72-9.72H121.9l-3.71,9.73c-.72,2-3.11,3.3-6.24,3.3a11.37,11.37,0,0,1-4.77-1c-2.07-1-4.05-3.58-1.78-10.65l17.94-47.22a10.45,10.45,0,0,1,20,0l17.93,47.19C163.55,178.57,161.56,181.2,159.5,182.15Zm37.9,0H173.34a7,7,0,0,1-7.19-6.88V124.38a7.66,7.66,0,0,1,15.31,0v44.06H197.4a6.88,6.88,0,1,1,0,13.75Zm58.71-5.65A7.5,7.5,0,0,1,242.7,180l-17.59-23.31-2.6,2.61v16.36a7.51,7.51,0,0,1-7.5,7.5h0a7.5,7.5,0,0,1-7.5-7.5v-51.3a7.5,7.5,0,0,1,15,0V140.5l20.92-20.93a5.82,5.82,0,0,1,4.16-1.67,7.61,7.61,0,0,1,7.37,7,5.84,5.84,0,0,1-1.66,4.57l-17.09,17.09L254.67,171A7.44,7.44,0,0,1,256.11,176.54Z"/></svg>