
<svg xmlns="http://www.w3.org/2000/svg" xmlns:xlink="http://www.w3.org/1999/xlink" viewBox="0 0 24 24" width="24px" height="24px"><rect fill="#8fcbdd" width="24" height="24"/><path fill="#ffffff" d="M12,12c-0.8,0-1.5-0.3-2.1-0.9C9.3,10.5,9,9.8,9,9c0-0.8,0.3-1.5,0.9-2.1C10.5,6.3,11.2,6,12,6s1.5,0.3,2.1,0.9S15,8.2,15,9c0,0.8-0.3,1.5-0.9,2.1C13.5,11.7,12.8,12,12,12z M6,18v-2.1c0-0.4,0.1-0.8,0.3-1.2c0.2-0.4,0.5-0.6,0.9-0.8C8,13.5,8.8,13.2,9.6,13s1.6-0.3,2.4-0.3s1.6,0.1,2.4,0.3s1.6,0.5,2.4,0.9c0.4,0.2,0.7,0.5,0.9,0.8c0.2,0.4,0.3,0.7,0.3,1.2V18H6z" /></svg>
