<svg xmlns="http://www.w3.org/2000/svg" xml:space="preserve" x="0px" y="0px" style="enable-background:new 0 0 340.2 88.7" viewBox="0 0 340.2 88.7"><path d="M340.2 10.6 334 4.5h-52.7v4.1l-3.5-4.1H225v3.8l-3.5-4.1h-13.9v2.3l-1.5-2h-7.6L194.4 0h-13.9v4.5h-11.7v4.1l-3.5-4.1h-13.9v2l-1.5-2h-7.6L138.1 0h-13.9v4.5h-11.7v4.1l-3.7-4.1H94.9v10.8L84.1 4.5H65.5l-9.4 9.4v3.3L43.3 4.5h-34L0 13.9v20.8l12 11.9H0v13.9l6.2 6.1h13.3v16l6.2 6.1h13.9V66.6H59V53.9l12.8 12.7h18.6l4.7-4.7v20.7l6.2 6.1H115v-4.1l3.7 4.1h52.7v-8.2l-4.9-7.2h6.7l15.6 15.5h29.6l9.4-9.4V67.2l-9.4-9.4-.6-.6h10v-2l1.9 2h11.8l3.8-13.7 2.1 7.6 6.2 6.1h4.8v25.4l6.2 6.1h19.6v-4.1l3.5 4.1h52.7V76.5l-4.1-3.6h4.1V49.3l-3.1-2.4h3.1v-9.8l-3.1-2.8h3.1V22.1l-2.1-1.7h2.1v-9.8h-.2zM208.6 51.7z"/><g fill="#FFF"><path d="m10.1 6.4-8.3 8.3V34l8.3 8.3h32.4l8.3-8.3V14.7l-8.3-8.3H10.1zm30.6 25.7H12V16.6h28.6v15.5h.1zM66.2 6.4l-8.3 8.3v35.7l8.3 8.3h17.1l8.3-8.3V14.7l-8.3-8.3H66.2zm15.2 42.1H68.1V16.6h13.3v31.9zM139.7 58.7l8.3-8.3V24.5l-8.3-8.3h-17.1l-8.3 8.3v25.9l8.3 8.3h17.1zm-15.1-32.3h13.3v22.1h-13.3V26.4zM1.8 58.7h19.5v22.1h10.2V58.7h19.4V48.5H1.8zM148 6.4h-11.7V1.8h-10.2v4.6h-11.8v6.1H148zM107 6.4H96.8v74.4H107V39.9h3.6V29.7H107zM124.6 61.4h-10.3v19.4h49.1V70.6h-38.8zM163.4 6.4h-10.2v52.3h10.2V39.9h3.9V29.7h-3.9zM196 49.5l8.3-8.3V24.5l-8.3-8.3h-17.1l-8.3 8.3v16.7l8.3 8.3H196zm-15.2-23.1h13.3v12.9h-13.3V26.4zM183.3 53.6l-8.3 8.3v10.6l8.3 8.3h28.1l8.3-8.3V61.9l-8.3-8.3h-28.1zm26.2 17h-24.3v-6.8h24.3v6.8zM204.3 6.4h-11.8V1.8h-10.2v4.6h-11.7v6.1h33.7zM209.5 16.2h-2.3v10.2h2.3v5.9h-2.3v10.2h2.3v6.8h10.2V6.1h-10.2zM283.1 32.8h49.1v6.1h-49.1zM283.1 26.4h49.1v-8.6h-38.9v-5.3h38.9V6.4h-49.1zM283.1 80.8h49.1v-8.6h-38.9v-7.3h38.9V45h-49.1v8.6H322v5.2h-38.9zM256.1 12.5V6.4h-29.2v6.1h9l-10.1 36.8h7.9l7.5-27 7.4 27h7.9l-10.1-36.8zM269.8 6.4h6.1v74.4h-6.1z"/><path d="M260 21.9h-4.3v10.2h4.3v48.7h6.1V6.4H260z"/></g></svg>