<svg xmlns="http://www.w3.org/2000/svg" width="192" height="44" viewBox="0 0 192 44"><path fill="currentColor" d="M65.06 37.13c.6-.54 1.04-1.17 1.3-1.89s.4-1.38.4-1.95c0-.49-.04-.97-.22-1.46-1.35-3.68-8.47-20.78-8.47-20.78h4.94s5.65 14.08 5.78 14.42.35.65.66.65.52-.22.66-.65l5.56-14.42h4.9L70.25 36.5q-1.065 2.73-2.76 4.02c-1.13.85-2.54 1.28-4.21 1.28h-2.91v-3.86h2.43c.91 0 1.67-.27 2.27-.8ZM82.75 31.55c-1.46-1.16-2.18-2.69-2.18-4.6s.75-3.51 2.25-4.71q2.25-1.8 6-2.28l6.22-.7c.41-.06.71-.18.91-.37a.98.98 0 0 0 .29-.72c0-.78-.18-1.44-.53-1.98s-.85-.96-1.48-1.26-1.36-.46-2.18-.46h-2.12c-1.24 0-2.26.32-3.09.96-.82.64-1.26 1.54-1.32 2.69h-4.81c.09-1.5.56-2.82 1.41-3.95s1.97-1.99 3.35-2.58 2.88-.89 4.5-.89h2.07c1.7 0 3.22.33 4.54 1s2.38 1.6 3.15 2.8c.78 1.2 1.17 2.6 1.17 4.19v14.25h-3.84v-1.75c0-.17-.04-.33-.14-.47a.6.6 0 0 0-.43-.25q-.39-.045-.84.39c-.74.7-1.72 1.27-2.96 1.74-1.24.46-2.57.7-4.01.7-2.5 0-4.48-.58-5.93-1.74Zm10.11-2.61c1.04-.43 1.86-1.07 2.45-1.91s.88-1.87.88-3.08v-.22c0-.35-.11-.62-.33-.8-.22-.19-.55-.25-.99-.2l-5.29.7c-1.32.17-2.37.52-3.13 1.04-.77.52-1.15 1.27-1.15 2.26 0 .93.35 1.64 1.04 2.13s1.7.74 3.02.74 2.46-.22 3.51-.65ZM173.85 31.55c-1.46-1.16-2.18-2.69-2.18-4.6s.75-3.51 2.25-4.71q2.25-1.8 6-2.28l6.22-.7c.41-.06.71-.18.91-.37a.98.98 0 0 0 .29-.72c0-.78-.18-1.44-.53-1.98s-.85-.96-1.48-1.26-1.36-.46-2.18-.46h-2.12c-1.24 0-2.26.32-3.09.96-.82.64-1.26 1.54-1.32 2.69h-4.81c.09-1.5.56-2.82 1.41-3.95s1.97-1.99 3.35-2.58 2.88-.89 4.5-.89h2.07c1.71 0 3.22.33 4.54 1s2.38 1.6 3.15 2.8c.78 1.2 1.17 2.6 1.17 4.19v14.25h-3.84v-1.75c0-.17-.04-.33-.14-.47a.6.6 0 0 0-.43-.25q-.39-.045-.84.39c-.74.7-1.72 1.27-2.96 1.74-1.24.46-2.57.7-4.01.7-2.5 0-4.48-.58-5.93-1.74Zm10.1-2.61c1.04-.43 1.86-1.07 2.45-1.91s.88-1.87.88-3.08v-.22c0-.35-.11-.62-.33-.8-.22-.19-.55-.25-.99-.2l-5.3.7c-1.32.17-2.37.52-3.13 1.04-.77.52-1.15 1.27-1.15 2.26 0 .93.35 1.64 1.04 2.13s1.7.74 3.02.74 2.46-.22 3.51-.65ZM109.04 11.05v1.22c0 .46.15.76.46.89s.71 0 1.21-.41a7.9 7.9 0 0 1 2.29-1.48c.88-.38 1.81-.56 2.78-.56h2.07c1.41 0 2.72.36 3.93 1.09 1.21.72 2.15 1.72 2.84 3s1.04 2.69 1.04 4.26v13.9h-4.63V19.89c0-.96-.18-1.82-.55-2.58-.37-.77-.89-1.38-1.57-1.82-.68-.45-1.44-.67-2.29-.67h-1.9c-1.09 0-2.07.29-2.93.87-.87.58-1.54 1.37-2.03 2.37s-.73 2.06-.73 3.19v11.73h-4.63V11.05zM133.9 31.83c-1.62-.97-2.89-2.32-3.82-4.04s-1.39-3.66-1.39-5.8.46-4.08 1.39-5.8 2.2-3.07 3.82-4.04 3.41-1.46 5.38-1.46h1.81c1.97 0 3.76.48 5.38 1.46 1.62.97 2.89 2.32 3.82 4.04s1.39 3.66 1.39 5.8-.46 4.08-1.37 5.8-2.18 3.07-3.82 4.04c-1.63.97-3.43 1.46-5.4 1.46h-1.81c-1.97 0-3.76-.48-5.38-1.46m10.12-3.45c.9-.64 1.6-1.51 2.12-2.63.51-1.11.77-2.37.77-3.76s-.26-2.63-.77-3.74c-.51-1.1-1.22-1.98-2.12-2.63s-1.89-.98-2.98-.98h-1.72c-1.09 0-2.08.32-2.98.96s-1.6 1.51-2.12 2.61c-.51 1.1-.77 2.36-.77 3.78s.26 2.68.77 3.78 1.22 1.97 2.12 2.61 1.89.96 2.98.96h1.72c1.09 0 2.08-.32 2.98-.96M154.91 2.54h4.63v30.4h-4.63zM168.45 11.05v24.58c0 2.03-.49 3.56-1.46 4.6s-2.35 1.56-4.15 1.56h-4.01v-3.87h2.6c.82 0 1.42-.23 1.79-.7.37-.46.55-1.17.55-2.13V11.05zm.22-8.51V7.1h-5.12V2.54zM29.03 42.06c.32-1.21.83-3.53.9-3.94s.38-1.76-1.39-1.58c-2.02.2-4.42.45-5.43.38-1.01-.08-1.71-.61-1.71-1.68s.06-5.58.06-5.58l.08-2.87c.02-.52.21-1.03.57-1.41.27-.28.66-.52 1.18-.52 1.79 0 8.72-.13 8.72-.13s1.37-.06 1.37 1.5-.05 3.78-.44 6.43c-.07.48-.36 2.25 2.15 1.61 0 0 5.35-1.31 6.76-1.97s1.41-1.42 1.55-2.19c.4-2.13.63-5.15.57-6.73-.04-1.2-.8-1.22-1.13-1.24-1.2-.06-5.31-.06-5.86-.14-.56-.08-1.38-.43-1.5-2.14-.26-3.9-.55-6.62-1.01-8.38-.17-.64-.6-1.64-1.92-1.88-1.98-.35-7.37-.99-8.41-1.06-.79-.06-2-.23-2.11-1.55-.08-1.33-.3-5.76-.32-5.96-.01-.2-.03-1.08-1.75-1.04-1.74.04-7.14.27-8.8.89S9.38 2.34 9.15 3.14c-.24.8-1.09 3.9-1.09 3.9l-.24.92s-.27 1.49-1.98 1.93-1.96.5-2.59.65c-.63.16-1.89.4-2.25 1.64-.36 1.31-.87 4.24-1 6.22-.04.54-.09 1.07.25 1.48.39.45 1.08.32 1.76.27.69-.05 3.5-.24 4.03-.27.57-.03 1.81-.28 1.89-2.12.09-1.83.41-4.36.5-4.68.1-.32.47-1.36 1.8-1.58 1.33-.21 5.18-.51 6.42-.54 1.24-.02 2.17.39 2.24 1.75.06 1.36 0 6.29 0 6.29s.11 2.52-1.98 2.53-9.49.08-9.49.08-1.66 0-1.59 2.6c.15 4.16.34 6.37.63 8.72 0 0 .27 1.74-1.24 1.39-1.51-.34-2.18-.54-2.18-.54s-1.12-.35-.95.77.88 3.72 1.43 5.04c0 0 .26.76 1.2 1.15s4.15 1.25 4.74 1.41 1.76.22 1.48-1.08c-.28-1.31-.51-2.33-.51-2.33s-.32-1.2 1.43-1.2 6.13.46 6.13.46 1.84.15 1.84 1.53v3.2c0 1.02.9 1.24 1.61 1.24 1.11 0 3.6-.19 5.51-.47 1.47-.22 1.92-.96 2.06-1.47ZM35.71 6.38s-1.47-3.88-1.99-4.86-.6-1.11-.6-1.11-.36-.63.56-.31 4.2 1.68 5.88 2.77c0 0 .79.5 1.36 1.64s1.69 3.51 2.1 4.67c0 0 .2.53.3.91s.15.72-.42.43-2.39-1.29-5.31-2.34c0 0-1.4-.39-1.88-1.81Z"/></svg>