<svg xmlns="http://www.w3.org/2000/svg" viewBox="0 0 203 39.999"><g fill="#ff690a"><path d="M41.142 13.587c0-.847-.169-1.354-1.016-1.862L25.396.381c-.677-.508-1.354-.508-1.862 0l-7.28 5.418C12.868 4.614 9.82 3.937 7.281 3.937c-4.571 0-7.28 2.201-7.28 5.587s2.709 7.957 7.45 12.698v11.005c0 .677.508 1.185 1.185 1.185h15.576c6.603 3.555 12.698 5.587 17.1 5.587s7.28-2.201 7.28-5.756-2.709-7.957-7.45-12.867v-7.788Zm-1.016 18.455c0 .677-.508 1.185-1.185 1.185H24.55c-5.926-3.217-11.852-7.45-15.915-11.513v-7.788c0-.847.169-1.354 1.016-1.862l7.28-5.587c7.45 2.878 17.439 9.312 23.195 15.068v10.497ZM82.791 11.047h4.571v18.116h-4.571zM85.162 3.428h-.339c-1.524 0-2.709 1.185-2.709 2.709s1.185 2.709 2.709 2.709h.339c1.524 0 2.709-1.185 2.709-2.709s-1.185-2.709-2.709-2.709ZM67.046 24.931l12.021-10.159v-3.725H60.443v4.233h11.513v.169l-12.021 9.989v3.725h19.64V25.1H67.046v-.169zM106.156 13.587h-.169c-1.016-1.862-3.048-2.878-5.756-2.878-5.418 0-9.481 4.063-9.481 9.481s4.063 9.481 9.481 9.481c3.386 0 4.91-1.524 5.756-2.878h.169v2.54c0 2.709-1.862 4.402-5.249 4.402h-.169c-2.54 0-4.402-.847-6.095-2.709v-.169l-3.386 2.878v.169c2.37 2.709 5.587 3.894 9.481 3.894 6.095 0 9.82-3.217 9.82-8.465V11.047h-4.571v2.54h.169Zm0 5.418v2.37c0 2.37-2.201 4.233-5.079 4.233h-.339c-3.217 0-5.418-2.201-5.418-5.418s2.37-5.418 5.418-5.418h.339c2.878 0 5.079 1.693 5.079 4.233ZM171.678 10.709c-3.555 0-5.249 1.693-6.095 3.048h-.169v-2.709h-4.571v18.115h4.571v-9.481c0-2.878 2.201-4.91 5.079-4.91h.339c2.878 0 4.741 2.032 4.741 5.418v8.973h4.571v-9.651c0-5.418-3.217-8.804-8.465-8.804ZM198.598 11.047v2.54h-.169c-1.016-1.862-3.048-2.878-5.756-2.878-5.418 0-9.481 4.063-9.481 9.481s4.063 9.481 9.481 9.481c3.386 0 4.91-1.524 5.756-2.878h.169v2.54c0 2.709-1.862 4.402-5.249 4.402h-.169c-2.54 0-4.402-.847-6.095-2.709v-.169l-3.386 2.878v.169c2.37 2.709 5.587 3.894 9.481 3.894 6.095 0 9.82-3.217 9.82-8.465V11.047h-4.402Zm0 7.957v2.37c0 2.37-2.201 4.233-5.079 4.233h-.339c-3.217 0-5.418-2.201-5.418-5.418s2.37-5.418 5.418-5.418h.339c2.878 0 5.079 1.693 5.079 4.233ZM125.288 10.709c-2.709 0-4.91 1.016-5.926 2.878h-.169V3.428h-4.571v25.735h4.571v-2.37h.169c.677 1.354 2.37 2.878 5.756 2.878 5.587 0 9.481-4.063 9.481-9.481 0-5.587-3.894-9.481-9.312-9.481Zm4.741 9.481c0 3.217-2.37 5.418-5.587 5.418h-.339c-3.048 0-5.249-1.862-5.249-4.233v-2.37c0-2.37 2.201-4.233 5.249-4.233h.339c3.217 0 5.587 2.37 5.587 5.418ZM152.716 13.587h-.339c-.677-1.354-2.37-2.878-5.756-2.878-5.587 0-9.481 4.063-9.481 9.481s4.063 9.481 9.481 9.481c3.386 0 5.079-1.524 5.756-2.878h.169v2.37h4.571V11.047h-4.571v2.54h.169Zm0 5.418v2.37c0 2.37-2.201 4.233-5.249 4.233h-.339c-3.217 0-5.587-2.37-5.587-5.418s2.37-5.418 5.587-5.418h.339c3.048 0 5.249 1.693 5.249 4.233Z"/></g></svg>